<?xml version="1.0" standalone="no"?>
<!DOCTYPE svg PUBLIC "-//W3C//DTD SVG 20010904//EN"
 "http://www.w3.org/TR/2001/REC-SVG-20010904/DTD/svg10.dtd">
<svg version="1.0" xmlns="http://www.w3.org/2000/svg"
 width="512.000000pt" height="512.000000pt" viewBox="0 0 512.000000 512.000000"
 preserveAspectRatio="xMidYMid meet">

<g transform="translate(0.000000,512.000000) scale(0.100000,-0.100000)"
fill="#000000" stroke="none">
<path d="M2354 4884 c-655 -89 -1309 -520 -1718 -1133 -86 -128 -217 -387
-271 -535 -112 -307 -163 -674 -135 -975 47 -510 253 -939 626 -1303 373 -365
896 -614 1469 -700 141 -21 571 -18 710 5 254 43 509 125 705 229 646 342
1028 929 1141 1758 20 143 17 480 -5 620 -121 784 -617 1474 -1311 1822 -218
110 -440 180 -673 212 -138 19 -397 19 -538 0z m499 -229 c253 -33 515 -128
752 -273 573 -348 946 -935 1037 -1632 18 -141 15 -442 -6 -580 -104 -690
-483 -1238 -1054 -1524 -270 -135 -550 -196 -900 -196 -471 0 -923 133 -1321
388 -332 213 -569 476 -731 814 -318 665 -212 1423 293 2097 96 128 314 350
442 450 306 240 667 400 1025 455 124 18 328 19 463 1z"/>
<path d="M1764 3273 c-12 -2 -34 -18 -50 -34 -27 -28 -29 -36 -28 -103 2 -84
20 -128 64 -151 41 -21 88 -18 134 8 58 33 79 67 84 135 4 55 2 61 -28 95 -30
35 -46 41 -130 51 -14 2 -35 2 -46 -1z"/>
<path d="M3263 3265 c-18 -7 -42 -29 -53 -47 -18 -28 -20 -43 -15 -97 7 -77
26 -116 65 -136 41 -21 88 -18 135 8 58 33 85 78 85 143 0 45 -5 59 -31 88
-21 24 -42 37 -67 41 -20 4 -48 8 -62 10 -14 3 -40 -2 -57 -10z"/>
<path d="M2306 2519 c-309 -45 -596 -230 -735 -474 -80 -138 -139 -331 -144
-462 -2 -44 2 -56 24 -78 32 -33 84 -41 131 -22 50 21 66 50 84 152 57 325
270 556 591 638 77 19 112 22 288 21 222 -1 310 -15 461 -73 155 -60 320 -195
394 -323 46 -81 80 -199 87 -306 5 -80 10 -99 30 -123 44 -52 123 -51 176 2
l30 30 -6 117 c-7 133 -30 228 -82 334 -149 301 -456 504 -848 562 -113 17
-380 20 -481 5z"/>
</g>
</svg>
